<svg width="30" height="30" viewBox="0 0 30 30" fill="none" xmlns="http://www.w3.org/2000/svg">
<g clip-path="url(#clip0)">
<path d="M29.375 12.4997H24.0788L17.3902 2.77067C17.1949 2.48625 16.806 2.41483 16.521 2.60953C16.2366 2.80547 16.1646 3.19424 16.3599 3.47865L22.5618 12.4996H7.43818L13.6402 3.47871C13.8354 3.1943 13.7634 2.80547 13.479 2.60959C13.1958 2.41488 12.8064 2.48631 12.6099 2.77072L5.92119 12.4997H0.62502C0.279551 12.4997 0 12.7792 0 13.1247C0 13.4702 0.279551 13.7497 0.62502 13.7497H1.41797L5.23869 25.7578C5.57074 26.7997 6.52775 27.4997 7.62088 27.4997H22.3792C23.4723 27.4997 24.4294 26.7997 24.7614 25.7572L28.582 13.7497H29.375C29.7205 13.7497 30.0001 13.4702 30.0001 13.1247C30 12.7792 29.7204 12.4997 29.375 12.4997ZM23.5699 25.3781C23.4039 25.8994 22.9254 26.2497 22.3791 26.2497H7.62088C7.07461 26.2497 6.59607 25.8994 6.43008 25.3787L2.72982 13.7497H27.2702L23.5699 25.3781Z" fill="#333333"/>
</g>
<defs>
<clipPath id="clip0">
<rect width="30" height="30" fill="white"/>
</clipPath>
</defs>
</svg>
