<svg width="20" height="20" viewBox="0 0 20 20" fill="none" xmlns="http://www.w3.org/2000/svg">
<path d="M10 0C4.48598 0 0 4.48598 0 10C0 15.514 4.48598 20 10 20C15.514 20 20 15.514 20 10C20 4.48598 15.514 0 10 0ZM10 18.3098C5.41793 18.3098 1.69016 14.5821 1.69016 10C1.69016 5.41793 5.41793 1.69016 10 1.69016C14.5821 1.69016 18.3098 5.41793 18.3098 10C18.3098 14.5821 14.5821 18.3098 10 18.3098Z" fill="#725980"/>
<path d="M14.5352 9.68998H10.5915V3.79576C10.5915 3.32904 10.2132 2.95068 9.74644 2.95068C9.27973 2.95068 8.90137 3.32904 8.90137 3.79576V10.535C8.90137 11.0017 9.27973 11.3801 9.74644 11.3801C9.75598 11.3801 9.7652 11.379 9.77461 11.3787C9.78402 11.379 9.79324 11.3801 9.80277 11.3801H14.5352C15.0019 11.3801 15.3802 11.0017 15.3802 10.535C15.3802 10.0683 15.0019 9.68998 14.5352 9.68998Z" fill="#725980"/>
</svg>
