<svg width="20" height="20" viewBox="0 0 20 20" fill="none" xmlns="http://www.w3.org/2000/svg">
<path d="M14.2071 0H5.79128C4.98687 0 4.33691 0.652936 4.33691 1.45661V18.5441C4.33691 19.3471 4.98687 20 5.79128 20H14.2063C15.0107 20 15.6622 19.3471 15.6622 18.5441V1.45661C15.6629 0.652936 15.0122 0 14.2071 0ZM7.92247 0.885009H12.0774C12.1826 0.885009 12.2669 1.04171 12.2669 1.23647C12.2669 1.43049 12.1826 1.58794 12.0774 1.58794H7.92247C7.81725 1.58794 7.73368 1.43049 7.73368 1.23647C7.73368 1.04171 7.81725 0.885009 7.92247 0.885009ZM9.99992 18.562C9.48728 18.562 9.07014 18.1457 9.07014 17.6323C9.07014 17.1189 9.48802 16.704 9.99992 16.704C10.5118 16.704 10.929 17.1196 10.929 17.6323C10.929 18.1457 10.5111 18.562 9.99992 18.562ZM14.572 15.3772H5.42788V2.45803H14.572V15.3772Z" fill="#725980"/>
</svg>
